<svg width="34" height="34" viewBox="0 0 34 34" fill="none" xmlns="http://www.w3.org/2000/svg">
<path d="M16.3894 21.848L16.364 21.824C17.0778 21.8959 17.7986 21.8083 18.4744 21.5675C19.1502 21.3267 19.764 20.9388 20.2715 20.4317C20.7788 19.9247 21.1674 19.3111 21.4086 18.6355C21.6499 17.9599 21.738 17.2392 21.6667 16.5253L21.692 16.5493C21.6211 15.7095 21.7344 14.8644 22.0238 14.0728C22.3132 13.2813 22.772 12.5625 23.3679 11.9665C23.9639 11.3707 24.6827 10.9119 25.4742 10.6225C26.2658 10.333 27.1108 10.2198 27.9507 10.2907L27.9254 10.2667C28.93 10.3611 29.9392 10.1431 30.8155 9.6428C31.6919 9.14245 32.3924 8.38396 32.8218 7.4708C33.2511 6.55765 33.3883 5.53428 33.2147 4.54027C33.0411 3.54625 32.5651 2.63001 31.8515 1.91649C31.138 1.20299 30.2218 0.726933 29.2278 0.553306C28.2338 0.379666 27.2104 0.51688 26.2972 0.94624C25.384 1.37559 24.6256 2.07619 24.1252 2.95247C23.6248 3.82873 23.407 4.83803 23.5014 5.84267L23.4774 5.81733C23.5484 6.65719 23.4354 7.50244 23.146 8.29407C22.8567 9.08569 22.3979 9.80461 21.802 10.4007C21.206 10.9965 20.4871 11.4553 19.6955 11.7447C18.9038 12.034 18.0586 12.1471 17.2187 12.076L17.2427 12.1013C16.529 12.0295 15.808 12.1171 15.1323 12.3579C14.4566 12.5985 13.8427 12.9865 13.3352 13.4936C12.8278 14.0007 12.4394 14.6143 12.198 15.2899C11.9568 15.9655 11.8687 16.6861 11.94 17.4L11.916 17.376C11.9867 18.2157 11.8732 19.0608 11.5838 19.8523C11.2942 20.6436 10.8355 21.3624 10.2396 21.9583C9.64372 22.5541 8.925 23.0128 8.13359 23.3024C7.34218 23.5919 6.49712 23.7053 5.65738 23.6347L5.68138 23.6587C4.67674 23.5643 3.66744 23.7821 2.79116 24.2825C1.9149 24.7829 1.2143 25.5413 0.78495 26.4545C0.35559 27.3677 0.218363 28.3911 0.392003 29.3851C0.565643 30.3791 1.0417 31.2953 1.7552 32.0088C2.46872 32.7224 3.38496 33.1984 4.37898 33.372C5.37299 33.5456 6.39636 33.4084 7.30952 32.9791C8.22267 32.5497 8.98116 31.8492 9.48151 30.9729C9.98191 30.0965 10.1998 29.0873 10.1054 28.0827L10.1307 28.1067C10.0598 27.2668 10.1731 26.4217 10.4626 25.6301C10.7519 24.8387 11.2107 24.1199 11.8066 23.5239C12.4026 22.928 13.1214 22.4692 13.9128 22.1799C14.7044 21.8904 15.5495 21.7771 16.3894 21.848Z" fill="#006B6A"/>
</svg>
